# xmcd CD database file
#
# Track frame offsets:
#	150
#	22714
#	38163
#	54397
#	73427
#	87324
#	103262
#	118407
#	132449
#	151571
#	164815
#	183576
#
# Disc length: 2660 seconds
#
# Revision: 0
# Processed by: cddbd v1.5.2PL0 Copyright (c) Steve Scherf et al.
# Submitted via: CDex 1.50beta10
#
DISCID=a80a620c
DTITLE=Reckless Kelly - Somewhere In Time
DYEAR=2010
DGENRE=Country
TTITLE0=Little Blossom
TTITLE1=The Ballad of Elano De Leone
TTITLE2=Bird On A Wire
TTITLE3=Everything I Could Do Wrong
TTITLE4=Some People's Kids
TTITLE5=I Hold The Bottle, You Hold The Wheel
TTITLE6=Best Forever Yet
TTITLE7=Idaho Cowboy
TTITLE8=Pure Quill
TTITLE9=You Cared Enough To Lie
TTITLE10=Thelma
TTITLE11=Somewhere In Time
EXTD=YEAR: 2010
EXTT0=
EXTT1=
EXTT2=
EXTT3=
EXTT4=
EXTT5=
EXTT6=
EXTT7=
EXTT8=
EXTT9=
EXTT10=
EXTT11=
PLAYORDER=
